<?xml version="1.0" standalone="no"?><!DOCTYPE svg PUBLIC "-//W3C//DTD SVG 1.1//EN" "http://www.w3.org/Graphics/SVG/1.1/DTD/svg11.dtd"><svg t="1659334506221" class="icon" viewBox="0 0 1024 1024" version="1.1" xmlns="http://www.w3.org/2000/svg" p-id="2333" xmlns:xlink="http://www.w3.org/1999/xlink" width="16" height="16"><defs><style type="text/css">@font-face { font-family: feedback-iconfont; src: url("//at.alicdn.com/t/font_1031158_u69w8yhxdu.woff2?t=1630033759944") format("woff2"), url("//at.alicdn.com/t/font_1031158_u69w8yhxdu.woff?t=1630033759944") format("woff"), url("//at.alicdn.com/t/font_1031158_u69w8yhxdu.ttf?t=1630033759944") format("truetype"); }
</style></defs><path d="M682.666667 55.42c1.066667 0.913333 2.12 1.86 3.126666 2.866667l194.586667 194.586666c1.006667 1.006667 1.953333 2.06 2.866667 3.126667H693.333333a10.666667 10.666667 0 0 1-10.666666-10.666667zM640 245.333333V42.666667H181.333333a53.393333 53.393333 0 0 0-53.333333 53.333333v832a53.393333 53.393333 0 0 0 53.333333 53.333333h661.333334a53.393333 53.393333 0 0 0 53.333333-53.333333V298.666667h-202.666667a53.393333 53.393333 0 0 1-53.333333-53.333334z" fill="#2c2c2c" p-id="2334"></path></svg>